<?xml version="1.0" encoding="UTF-8" standalone="no"?>
<!-- Created with Inkscape (http://www.inkscape.org/) -->

<svg
   xmlns:ns0="http://www.iki.fi/pav/software/textext/"
   xmlns:dc="http://purl.org/dc/elements/1.1/"
   xmlns:cc="http://creativecommons.org/ns#"
   xmlns:rdf="http://www.w3.org/1999/02/22-rdf-syntax-ns#"
   xmlns:svg="http://www.w3.org/2000/svg"
   xmlns="http://www.w3.org/2000/svg"
   xmlns:xlink="http://www.w3.org/1999/xlink"
   xmlns:sodipodi="http://sodipodi.sourceforge.net/DTD/sodipodi-0.dtd"
   xmlns:inkscape="http://www.inkscape.org/namespaces/inkscape"
   width="408.64285"
   height="474.35709"
   id="svg2"
   sodipodi:version="0.32"
   inkscape:version="0.46+devel"
   sodipodi:docname="classical_particle.svg"
   version="1.0"
   inkscape:output_extension="org.inkscape.output.svg.inkscape">
  <sodipodi:namedview
     id="base"
     pagecolor="#ffffff"
     bordercolor="#666666"
     borderopacity="1.0"
     gridtolerance="10000"
     guidetolerance="10"
     objecttolerance="10"
     inkscape:pageopacity="0.0"
     inkscape:pageshadow="2"
     inkscape:zoom="0.7"
     inkscape:cx="-210.72919"
     inkscape:cy="116.04364"
     inkscape:document-units="px"
     inkscape:current-layer="g2397"
     showgrid="false"
     inkscape:window-width="1680"
     inkscape:window-height="976"
     inkscape:window-x="0"
     inkscape:window-y="25" />
  <defs
     id="defs4">
    <linearGradient
       inkscape:collect="always"
       id="linearGradient3219">
      <stop
         style="stop-color:#ffffff;stop-opacity:1;"
         offset="0"
         id="stop3221" />
      <stop
         style="stop-color:#ffffff;stop-opacity:0;"
         offset="1"
         id="stop3223" />
    </linearGradient>
    <linearGradient
       id="linearGradient3207">
      <stop
         style="stop-color:#77af00;stop-opacity:1;"
         offset="0"
         id="stop3209" />
      <stop
         id="stop3215"
         offset="0.61252689"
         style="stop-color:#77af00;stop-opacity:0.90196079;" />
      <stop
         style="stop-color:#77af00;stop-opacity:0.54509807;"
         offset="1"
         id="stop3211" />
    </linearGradient>
    <marker
       style="overflow:visible"
       id="Arrow1Mend"
       refX="0"
       refY="0"
       orient="auto"
       inkscape:stockid="Arrow1Mend">
      <path
         transform="matrix(-0.4,0,0,-0.4,-4,0)"
         style="fill-rule:evenodd;stroke:#000000;stroke-width:1pt;marker-start:none"
         d="M 0,0 5,-5 -12.5,0 5,5 0,0 z"
         id="path3173" />
    </marker>
    <inkscape:perspective
       id="perspective10"
       inkscape:persp3d-origin="372.04724 : 350.78739 : 1"
       inkscape:vp_z="744.09448 : 526.18109 : 1"
       inkscape:vp_y="0 : 1000 : 0"
       inkscape:vp_x="0 : 526.18109 : 1"
       sodipodi:type="inkscape:persp3d" />
    <radialGradient
       inkscape:collect="always"
       xlink:href="#linearGradient3207"
       id="radialGradient3213"
       cx="219.70818"
       cy="243.73508"
       fx="219.70818"
       fy="243.73508"
       r="47.982246"
       gradientUnits="userSpaceOnUse"
       gradientTransform="matrix(1.543491,-1.5883536e-7,1.5883536e-7,1.543491,-119.40949,-132.46776)" />
    <radialGradient
       inkscape:collect="always"
       xlink:href="#linearGradient3219"
       id="radialGradient3225"
       cx="68.185295"
       cy="223.96439"
       fx="68.185295"
       fy="223.96439"
       r="15.657365"
       gradientTransform="matrix(1,0,0,0.7096774,0,65.021921)"
       gradientUnits="userSpaceOnUse" />
  </defs>
  <metadata
     id="metadata7">
    <rdf:RDF>
      <cc:Work
         rdf:about="">
        <dc:format>image/svg+xml</dc:format>
        <dc:type
           rdf:resource="http://purl.org/dc/dcmitype/StillImage" />
        <dc:title></dc:title>
      </cc:Work>
    </rdf:RDF>
  </metadata>
  <g
     id="layer1"
     inkscape:groupmode="layer"
     inkscape:label="Layer 1"
     transform="translate(-300.97593,-151.18659)">
    <g
       id="g2397"
       transform="translate(184.19373,174.39535)">
      <g
         transform="matrix(7.0041896,0,0,7.0041896,-1238.264,-779.50674)"
         ns0:text="$\\vec{v}$"
         ns0:preamble="/home/nepstad/sci/posters/ICOMP08/header.tex"
         id="g3949">
        <defs
           id="defs3951">
          <g
             id="g3953">
            <symbol
               style="overflow:visible"
               overflow="visible"
               id="textext-82abceaf-0">
              <path
                 style="stroke:none"
                 d=""
                 id="path3956" />
            </symbol>
            <symbol
               style="overflow:visible"
               overflow="visible"
               id="textext-82abceaf-1">
              <path
                 style="stroke:none"
                 d="m 5.359375,-5.9375 c -0.140625,0.140625 -0.46875,0.421875 -0.46875,0.59375 0,0.09375 0.09375,0.203125 0.1875,0.203125 0.09375,0 0.140625,-0.078125 0.203125,-0.140625 C 5.390625,-5.421875 5.625,-5.703125 6.0625,-5.921875 6.125,-5.96875 6.234375,-6.015625 6.234375,-6.125 6.234375,-6.234375 6.15625,-6.28125 6.09375,-6.328125 5.875,-6.484375 5.765625,-6.65625 5.6875,-6.890625 5.65625,-6.984375 5.625,-7.125 5.484375,-7.125 c -0.140625,0 -0.203125,0.140625 -0.203125,0.21875 0,0.046875 0.078125,0.359375 0.234375,0.578125 l -3.359375,0 c -0.15625,0 -0.34375,0 -0.34375,0.203125 0,0.1875 0.1875,0.1875 0.34375,0.1875 l 3.203125,0 z"
                 id="path3959" />
            </symbol>
            <symbol
               style="overflow:visible"
               overflow="visible"
               id="textext-82abceaf-2">
              <path
                 style="stroke:none"
                 d="m 4.671875,-3.703125 c 0,-0.546875 -0.265625,-0.703125 -0.4375,-0.703125 -0.25,0 -0.5,0.265625 -0.5,0.484375 0,0.125 0.046875,0.1875 0.15625,0.296875 0.21875,0.203125 0.34375,0.453125 0.34375,0.8125 0,0.421875 -0.609375,2.703125 -1.765625,2.703125 -0.515625,0 -0.75,-0.34375 -0.75,-0.875 0,-0.546875 0.28125,-1.28125 0.578125,-2.109375 0.078125,-0.171875 0.125,-0.3125 0.125,-0.5 0,-0.4375 -0.3125,-0.8125 -0.8125,-0.8125 -0.9375,0 -1.3125,1.453125 -1.3125,1.53125 0,0.109375 0.09375,0.109375 0.109375,0.109375 0.109375,0 0.109375,-0.03125 0.15625,-0.1875 0.296875,-1 0.71875,-1.234375 1.015625,-1.234375 0.078125,0 0.25,0 0.25,0.3125 0,0.25 -0.109375,0.53125 -0.171875,0.703125 -0.4375,1.15625 -0.5625,1.609375 -0.5625,2.046875 0,1.078125 0.875,1.234375 1.328125,1.234375 1.671875,0 2.25,-3.296875 2.25,-3.8125 z"
                 id="path3962" />
            </symbol>
          </g>
        </defs>
        <g
           id="textext-82abceaf-3">
          <g
             style="fill:#000000;fill-opacity:1"
             id="g3965">
            <use
               height="1052.3622"
               width="744.09448"
               xlink:href="#textext-82abceaf-1"
               x="223.045"
               y="134.765"
               id="use3967" />
          </g>
          <g
             style="fill:#000000;fill-opacity:1"
             id="g3969">
            <use
               height="1052.3622"
               width="744.09448"
               xlink:href="#textext-82abceaf-2"
               x="223.43355"
               y="134.765"
               id="use3971" />
          </g>
        </g>
      </g>
      <g
         id="g3661">
        <path
           d="m 267.69042,243.73508 c 0,26.49986 -21.48238,47.98224 -47.98224,47.98224 -26.49987,0 -47.98225,-21.48238 -47.98225,-47.98224 0,-26.49987 21.48238,-47.98225 47.98225,-47.98225 26.49986,0 47.98224,21.48238 47.98224,47.98225 z"
           sodipodi:ry="47.982246"
           sodipodi:rx="47.982246"
           sodipodi:cy="243.73508"
           sodipodi:cx="219.70818"
           id="path3157"
           style="fill:url(#radialGradient3213);fill-opacity:1;stroke:none"
           sodipodi:type="arc" />
        <path
           transform="matrix(0.5662985,-0.5774943,0.5774943,0.5662985,26.547579,135.96944)"
           d="m 83.84266,223.96439 c 0,6.13681 -7.010041,11.11167 -15.657365,11.11167 -8.647324,0 -15.657365,-4.97486 -15.657365,-11.11167 0,-6.13681 7.010041,-11.11168 15.657365,-11.11168 8.647324,0 15.657365,4.97487 15.657365,11.11168 z"
           sodipodi:ry="11.111678"
           sodipodi:rx="15.657365"
           sodipodi:cy="223.96439"
           sodipodi:cx="68.185295"
           id="path3217"
           style="fill:url(#radialGradient3225);fill-opacity:1;stroke:none"
           sodipodi:type="arc" />
      </g>
      <path
         style="fill:none;stroke:#000000;stroke-width:4;stroke-linecap:round;stroke-linejoin:miter;stroke-miterlimit:4;stroke-opacity:1;stroke-dasharray:none;marker-end:url(#Arrow1Mend)"
         d="m 247.99245,235.40132 240.48232,-63.3123"
         id="path3159"
         sodipodi:nodetypes="cc" />
    </g>
  </g>
</svg>
