<?xml version="1.0" encoding="UTF-8" standalone="no"?>
<svg
   xmlns:dc="http://purl.org/dc/elements/1.1/"
   xmlns:cc="http://creativecommons.org/ns#"
   xmlns:rdf="http://www.w3.org/1999/02/22-rdf-syntax-ns#"
   xmlns:svg="http://www.w3.org/2000/svg"
   xmlns="http://www.w3.org/2000/svg"
   xmlns:xlink="http://www.w3.org/1999/xlink"
   xmlns:sodipodi="http://sodipodi.sourceforge.net/DTD/sodipodi-0.dtd"
   xmlns:inkscape="http://www.inkscape.org/namespaces/inkscape"
   inkscape:output_extension="org.inkscape.output.svg.inkscape"
   sodipodi:docname="Stylised_Lithium_Atom.svg"
   inkscape:version="0.46+devel"
   sodipodi:version="0.32"
   id="svg2"
   height="152.76921"
   width="446.83441"
   version="1.0">
  <sodipodi:namedview
     pagecolor="#ffffff"
     bordercolor="#666666"
     borderopacity="1"
     objecttolerance="10"
     gridtolerance="10"
     guidetolerance="10"
     inkscape:pageopacity="0"
     inkscape:pageshadow="2"
     inkscape:window-width="1680"
     inkscape:window-height="976"
     id="namedview15681"
     showgrid="false"
     inkscape:zoom="0.83278689"
     inkscape:cx="307.4114"
     inkscape:cy="-1.0666359"
     inkscape:window-x="0"
     inkscape:window-y="25"
     inkscape:current-layer="svg2" />
  <metadata
     id="metadata15683">
    <rdf:RDF>
      <cc:Work
         rdf:about="">
        <dc:format>image/svg+xml</dc:format>
        <dc:type
           rdf:resource="http://purl.org/dc/dcmitype/StillImage" />
        <dc:title></dc:title>
      </cc:Work>
    </rdf:RDF>
  </metadata>
  <defs
     id="defs15617">
    <inkscape:perspective
       id="perspective15685"
       inkscape:persp3d-origin="135 : 101.66667 : 1"
       inkscape:vp_z="270 : 152.5 : 1"
       inkscape:vp_y="0 : 1000 : 0"
       inkscape:vp_x="0 : 152.5 : 1"
       sodipodi:type="inkscape:persp3d" />
    <linearGradient
       id="2867">
      <stop
         id="stop15620"
         offset="0"
         style="stop-color:#ffffff;stop-opacity:1" />
      <stop
         id="stop15622"
         offset="1"
         style="stop-color:#ffffff;stop-opacity:0" />
    </linearGradient>
    <radialGradient
       gradientUnits="userSpaceOnUse"
       xlink:href="#2867"
       id="2873"
       fy="140.05769"
       fx="16.036171"
       r="13.005714"
       cy="140.05769"
       cx="16.036171" />
    <radialGradient
       gradientUnits="userSpaceOnUse"
       xlink:href="#2867"
       id="2879"
       fy="140.05769"
       fx="16.036171"
       r="13.005714"
       cy="140.05769"
       cx="16.036171" />
    <radialGradient
       gradientUnits="userSpaceOnUse"
       xlink:href="#2867"
       id="2885"
       fy="140.05769"
       fx="16.036171"
       r="13.005714"
       cy="140.05769"
       cx="16.036171" />
    <radialGradient
       gradientUnits="userSpaceOnUse"
       xlink:href="#2867"
       id="2891"
       fy="140.05769"
       fx="16.036171"
       r="13.005714"
       cy="140.05769"
       cx="16.036171" />
    <radialGradient
       gradientUnits="userSpaceOnUse"
       xlink:href="#2867"
       id="2897"
       fy="140.05769"
       fx="16.036171"
       r="13.005714"
       cy="140.05769"
       cx="16.036171" />
    <radialGradient
       gradientUnits="userSpaceOnUse"
       xlink:href="#2867"
       id="2903"
       fy="140.05769"
       fx="16.036171"
       r="13.005714"
       cy="140.05769"
       cx="16.036171" />
    <radialGradient
       gradientUnits="userSpaceOnUse"
       xlink:href="#2867"
       id="2909"
       fy="140.05769"
       fx="16.036171"
       r="13.005714"
       cy="140.05769"
       cx="16.036171" />
    <radialGradient
       gradientUnits="userSpaceOnUse"
       xlink:href="#2867"
       id="2915"
       fy="140.05769"
       fx="16.036171"
       r="13.005714"
       cy="140.05769"
       cx="16.036171" />
    <radialGradient
       gradientUnits="userSpaceOnUse"
       xlink:href="#2867"
       id="2921"
       fy="140.05769"
       fx="16.036171"
       r="13.005714"
       cy="140.05769"
       cx="16.036171" />
    <radialGradient
       gradientUnits="userSpaceOnUse"
       xlink:href="#2867"
       id="2927"
       fy="140.05769"
       fx="16.036171"
       r="13.005714"
       cy="140.05769"
       cx="16.036171" />
    <radialGradient
       gradientUnits="userSpaceOnUse"
       xlink:href="#2867"
       id="2939"
       fy="140.05769"
       fx="16.036171"
       r="13.005714"
       cy="140.05769"
       cx="16.036171" />
    <inkscape:perspective
       id="perspective18688"
       inkscape:persp3d-origin="0.5 : 0.33333333 : 1"
       inkscape:vp_z="1 : 0.5 : 1"
       inkscape:vp_y="0 : 1000 : 0"
       inkscape:vp_x="0 : 0.5 : 1"
       sodipodi:type="inkscape:persp3d" />
    <marker
       style="overflow:visible"
       id="Arrow1Lend"
       refX="0"
       refY="0"
       orient="auto"
       inkscape:stockid="Arrow1Lend">
      <path
         transform="matrix(-0.8,0,0,-0.8,-10,0)"
         style="fill-rule:evenodd;stroke:#000000;stroke-width:1pt;marker-start:none"
         d="M 0,0 5,-5 -12.5,0 5,5 0,0 z"
         id="path7036" />
    </marker>
  </defs>
  <g
     id="g18631"
     transform="matrix(0.20288657,0,0,0.20288657,392.84034,12.023884)">
    <g
       transform="translate(-1032.857,-763.6479)"
       id="layer1">
      <path
         d="m 29.041885,140.05769 a 13.005714,13.005714 0 1 1 -26.0114285,0 13.005714,13.005714 0 1 1 26.0114285,0 z"
         transform="matrix(1.186985,0,0,1.186985,1167.064,737.6632)"
         style="fill:#0707ff;stroke-width:4;stroke-miterlimit:4"
         id="path15636" />
      <path
         d="m 29.041885,140.05769 a 13.005714,13.005714 0 1 1 -26.0114285,0 13.005714,13.005714 0 1 1 26.0114285,0 z"
         transform="matrix(1.186985,0,0,1.186985,1170.418,732.9085)"
         style="opacity:0.9;fill:url(#2921);stroke-width:4;stroke-miterlimit:4"
         id="path15638" />
      <path
         d="m 29.041885,140.05769 a 13.005714,13.005714 0 1 1 -26.0114285,0 13.005714,13.005714 0 1 1 26.0114285,0 z"
         transform="matrix(1.186985,0,0,1.186985,1148.535,730.1412)"
         style="fill:#ff0000;stroke-width:4;stroke-miterlimit:4"
         id="path15640" />
      <path
         d="m 29.041885,140.05769 a 13.005714,13.005714 0 1 1 -26.0114285,0 13.005714,13.005714 0 1 1 26.0114285,0 z"
         transform="matrix(1.186985,0,0,1.186985,1151.889,725.3864)"
         style="opacity:0.9;fill:url(#2897);stroke-width:4;stroke-miterlimit:4"
         id="path15642" />
      <path
         d="m 29.041885,140.05769 a 13.005714,13.005714 0 1 1 -26.0114285,0 13.005714,13.005714 0 1 1 26.0114285,0 z"
         transform="matrix(1.186985,0,0,1.186985,1131.289,737.1128)"
         style="fill:#0707ff;stroke-width:4;stroke-miterlimit:4"
         id="path15644" />
      <path
         d="m 29.041885,140.05769 a 13.005714,13.005714 0 1 1 -26.0114285,0 13.005714,13.005714 0 1 1 26.0114285,0 z"
         transform="matrix(1.186985,0,0,1.186985,1134.643,732.3581)"
         style="opacity:0.9;fill:url(#2915);stroke-width:4;stroke-miterlimit:4"
         id="path15646" />
      <path
         d="m 29.041885,140.05769 a 13.005714,13.005714 0 1 1 -26.0114285,0 13.005714,13.005714 0 1 1 26.0114285,0 z"
         transform="matrix(1.15534,0,0,1.15534,1054.604,734.7448)"
         style="fill:#000000;stroke-width:4;stroke-miterlimit:4"
         id="path15648" />
      <path
         d="m 29.041885,140.05769 a 13.005714,13.005714 0 1 1 -26.0114285,0 13.005714,13.005714 0 1 1 26.0114285,0 z"
         transform="matrix(1.15534,0,0,1.15534,1057.869,730.1168)"
         style="opacity:0.9;fill:url(#2873);stroke-width:4;stroke-miterlimit:4"
         id="path15650" />
      <path
         d="m 29.041885,140.05769 a 13.005714,13.005714 0 1 1 -26.0114285,0 13.005714,13.005714 0 1 1 26.0114285,0 z"
         transform="matrix(1.15534,0,0,1.15534,1211.825,681.479)"
         style="fill:#000000;stroke-width:4;stroke-miterlimit:4"
         id="path15652" />
      <path
         d="m 29.041885,140.05769 a 13.005714,13.005714 0 1 1 -26.0114285,0 13.005714,13.005714 0 1 1 26.0114285,0 z"
         transform="matrix(1.15534,0,0,1.15534,1215.09,676.851)"
         style="opacity:0.9;fill:url(#2879);stroke-width:4;stroke-miterlimit:4"
         id="path15654" />
      <path
         d="m 29.041885,140.05769 a 13.005714,13.005714 0 1 1 -26.0114285,0 13.005714,13.005714 0 1 1 26.0114285,0 z"
         transform="matrix(1.15534,0,0,1.15534,1182.182,845.4076)"
         style="fill:#000000;stroke-width:4;stroke-miterlimit:4"
         id="path15656" />
      <path
         d="m 29.041885,140.05769 a 13.005714,13.005714 0 1 1 -26.0114285,0 13.005714,13.005714 0 1 1 26.0114285,0 z"
         transform="matrix(1.15534,0,0,1.15534,1185.447,840.7796)"
         style="opacity:0.9;fill:url(#2885);stroke-width:4;stroke-miterlimit:4"
         id="path15658" />
      <path
         d="m 29.041885,140.05769 a 13.005714,13.005714 0 1 1 -26.0114285,0 13.005714,13.005714 0 1 1 26.0114285,0 z"
         transform="matrix(1.186985,0,0,1.186985,1130.922,762.0638)"
         style="fill:#ff0000;stroke-width:4;stroke-miterlimit:4"
         id="path15660" />
      <path
         d="m 29.041885,140.05769 a 13.005714,13.005714 0 1 1 -26.0114285,0 13.005714,13.005714 0 1 1 26.0114285,0 z"
         transform="matrix(1.186985,0,0,1.186985,1134.277,757.309)"
         style="opacity:0.9;fill:url(#2909);stroke-width:4;stroke-miterlimit:4"
         id="path15662" />
      <path
         d="m 29.041885,140.05769 a 13.005714,13.005714 0 1 1 -26.0114285,0 13.005714,13.005714 0 1 1 26.0114285,0 z"
         transform="matrix(1.186985,0,0,1.186985,1150.186,770.6865)"
         style="fill:#0707ff;stroke-width:4;stroke-miterlimit:4"
         id="path15664" />
      <path
         d="m 29.041885,140.05769 a 13.005714,13.005714 0 1 1 -26.0114285,0 13.005714,13.005714 0 1 1 26.0114285,0 z"
         transform="matrix(1.186985,0,0,1.186985,1153.54,765.9317)"
         style="opacity:0.9;fill:url(#2927);stroke-width:4;stroke-miterlimit:4"
         id="path15666" />
      <path
         d="m 29.041885,140.05769 a 13.005714,13.005714 0 1 1 -26.0114285,0 13.005714,13.005714 0 1 1 26.0114285,0 z"
         transform="matrix(1.186985,0,0,1.186985,1167.614,761.3299)"
         style="fill:#ff0000;stroke-width:4;stroke-miterlimit:4"
         id="path15668" />
      <path
         d="m 29.041885,140.05769 a 13.005714,13.005714 0 1 1 -26.0114285,0 13.005714,13.005714 0 1 1 26.0114285,0 z"
         transform="matrix(1.186985,0,0,1.186985,1150.369,747.3867)"
         style="fill:#0707ff;stroke-width:4;stroke-miterlimit:4"
         id="path15670" />
      <path
         d="m 29.041885,140.05769 a 13.005714,13.005714 0 1 1 -26.0114285,0 13.005714,13.005714 0 1 1 26.0114285,0 z"
         transform="matrix(1.186985,0,0,1.186985,1170.969,756.5752)"
         style="opacity:0.9;fill:url(#2903);stroke-width:4;stroke-miterlimit:4"
         id="path15672" />
      <path
         d="m 29.041885,140.05769 a 13.005714,13.005714 0 1 1 -26.0114285,0 13.005714,13.005714 0 1 1 26.0114285,0 z"
         transform="matrix(1.186985,0,0,1.186985,1153.724,742.6319)"
         style="opacity:0.9;fill:url(#2939);stroke-width:4;stroke-miterlimit:4"
         id="path15674" />
    </g>
    <g
       transform="translate(-1033,-764)"
       id="g15676">
      <path
         d="m 1204.4841,989.19358 c 3.0605,-18.99129 4.6483,-38.17548 4.3827,-57.40879 1.1807,-31.90826 2.0342,-64.26663 -5.6361,-95.53064 -4.605,-21.51135 -9.1405,-45.00365 -24.7611,-61.533 -7.0992,-8.56894 -18.8958,-4.42304 -23.9657,3.93122 -11.6132,16.77023 -16.2332,37.26109 -20.7343,56.84957 -5.5058,27.61466 -5.5357,55.91501 -6.7677,83.94661 -0.9931,29.76563 3.4283,59.35029 8.644,88.56175 3.8482,17.9811 9.6763,36.4978 21.9545,50.5402 11.9982,10.2487 25.6754,-2.0877 30.3286,-13.6215 3.392,-6.2024 5.9752,-12.796 8.6981,-19.3068"
         style="fill:none;stroke:#000000;stroke-width:5;stroke-linecap:butt;stroke-linejoin:miter;stroke-miterlimit:4"
         id="path2843" />
      <path
         d="m 1086.3529,910.49833 c 14.9167,12.14611 30.7368,23.11328 47.5261,32.49992 27.043,16.97665 54.6394,33.89498 85.55,42.88431 20.9319,6.76763 43.5446,14.58594 65.6697,9.32276 10.9705,-1.86361 13.2784,-14.15272 8.5783,-22.72051 -8.7168,-18.44244 -24.1524,-32.68891 -38.866,-46.38122 -21.1621,-18.57549 -45.656,-32.75156 -69.3161,-47.8343 -25.2812,-15.74287 -53.113,-26.70615 -81.0187,-36.79494 -17.4962,-5.65791 -36.4461,-9.86898 -54.7463,-6.25695 -14.8748,5.2664 -11.0297,23.2794 -3.3678,33.07609 3.6755,6.03876 8.0941,11.57267 12.3712,17.18617"
         style="fill:none;stroke:#000000;stroke-width:5;stroke-linecap:butt;stroke-linejoin:miter;stroke-miterlimit:4"
         id="path2847" />
      <path
         d="m 1212.8088,849.16503 c -17.9772,6.84518 -35.3851,15.0622 -51.9088,24.90887 -28.2237,14.93161 -56.6736,30.37164 -79.9139,52.64632 -16.3269,14.74372 -34.4041,30.41773 -40.9086,52.21024 -3.8713,10.43256 5.6174,18.57577 15.3874,18.7893 20.33,1.67221 40.3856,-4.57218 59.6003,-10.46836 26.6679,-9.03916 51.1917,-23.16344 76.0838,-36.1123 26.2743,-14.02277 49.6847,-32.64414 72.3747,-51.76679 13.648,-12.32319 26.7698,-26.62883 32.7918,-44.28327 2.8766,-15.5151 -14.6457,-21.1917 -26.9608,-19.45458 -7.0675,0.16365 -14.0693,1.22333 -21.0693,2.12063"
         style="fill:none;stroke:#000000;stroke-width:5;stroke-linecap:butt;stroke-linejoin:miter;stroke-miterlimit:4"
         id="path2849" />
    </g>
  </g>
  <path
     id="path18076"
     title="sin(x) * sin(x) * cos(3*x)"
     d="m 1.9887806,76.384884 c 4.86528,-3.7e-4 9.7305604,-0.38688 14.5958404,-1.03811 4.86529,-0.65122 9.73057,-1.56212 14.59586,-2.40943 4.86528,-0.84731 9.73056,-1.62105 14.59585,-1.9141 4.86528,-0.29306 9.73057,-0.0922 14.59585,0.94159 4.86528,1.03378 9.73056,2.91329 14.59585,5.76853 4.86529,2.85524 9.73056,6.69478 14.59585,11.35471 4.86528,4.65993 9.73056,10.14171 14.595849,15.988026 4.86528,5.84633 9.73056,12.05041 14.59585,17.9523 4.86529,5.90189 9.73057,11.48759 14.59585,16.05372 4.86529,4.56615 9.73057,8.09455 14.59584,10.02377 4.8653,1.92921 9.73058,2.24112 14.59586,0.67639 4.86528,-1.56473 9.73057,-5.01986 14.59585,-10.23325 4.86529,-5.21338 9.73057,-12.19115 14.59585,-20.41824 4.86529,-8.22709 9.73057,-17.70068 14.59586,-27.629666 4.86528,-9.92901 9.73056,-20.30259 14.59584,-30.23247 4.86529,-9.9299 9.73057,-19.40015 14.59585,-27.62969 4.86529,-8.22954 9.73058,-15.2014 14.59586,-20.41824 4.86528,-5.2168396 9.73056,-8.6647996 14.59584,-10.2332396 4.8653,-1.56843 9.73058,-1.24966 14.59586,0.67639 4.86528,1.92605 9.73056,5.45965 14.59584,10.0237496 4.8653,4.56411 9.73058,10.15246 14.59586,16.05373 4.86529,5.90127 9.73057,12.10529 14.59585,17.9523 4.86529,5.84702 9.73057,11.3265 14.59585,15.98804 4.86529,4.66152 9.73057,8.49756 14.59585,11.3547 4.86529,2.85715 9.73057,4.73311 14.59585,5.76854 4.86529,1.03542 9.73057,1.23368 14.59585,0.94159 4.86529,-0.29208 9.73057,-1.06694 14.59585,-1.9141 4.86529,-0.84716 9.73057,-1.75772 14.59585,-2.40944 4.86529,-0.65171 9.73057,-1.03774 14.59586,-1.0381"
     style="color:#000000;fill:#aa0000;fill-opacity:1;stroke:#370000;stroke-width:3.97756124;stroke-linecap:square;stroke-linejoin:miter;stroke-miterlimit:1;stroke-opacity:1;stroke-dasharray:none;stroke-dashoffset:0;marker:none;visibility:visible;display:inline;overflow:visible;enable-background:accumulate" />
  <text
     sodipodi:linespacing="125%"
     id="text8220"
     y="35.581917"
     x="14.167005"
     style="font-size:22px;font-style:normal;font-variant:normal;font-weight:normal;font-stretch:normal;text-align:start;line-height:125%;writing-mode:lr-tb;text-anchor:start;fill:#000000;fill-opacity:1;stroke:none;font-family:Arial;-inkscape-font-specification:Arial"
     xml:space="preserve"><tspan
       y="35.581917"
       x="14.167005"
       id="tspan8222"
       sodipodi:role="line">Laser Beam</tspan></text>
  <path
     id="path8224"
     d="m 9.7384506,45.581914 146.4285794,0"
     style="stroke:#000000;stroke-width:1px;stroke-opacity:1;marker-end:url(#Arrow1Lend)" />
</svg>
